:version 1.10
:name ASF
:units
  mass 1
  length 1
  angle deg
:documentation
  ASF file generated by Kaydara
:root
  axis xyz
  order  tx ty tz rx ry rz
  position 0 0 0
  orientation 0 0 0
:bonedata
  begin
    id 1
    name lfemurDummy
    direction 0.61522 -0.761478 0.204097
    length 5.68318
    axis 0 -0 0 xyz
  end
  begin
    id 2
    name lfemur
    direction 0.34202 -0.939693 -5.84747e-008
    length 16.9147
    axis 0 -0 20 xyz
    dof rx ry rz
    limits( -inf , inf )
( -inf , inf )
( -inf , inf )

  end
  begin
    id 3
    name ltibia
    direction 0.34202 -0.939693 1.20839e-009
    length 18.0532
    axis 0 -0 20 xyz
    dof rz ry rx
    limits( -inf , inf )
( -inf , inf )
( -inf , inf )

  end
  begin
    id 4
    name lfoot
    direction 0.0841971 -0.23133 0.969225
    length 5.23822
    axis -90 7.62852e-016 20 xyz
    dof ry rx rz
    limits( -inf , inf )
( -inf , inf )
( -inf , inf )

  end
  begin
    id 5
    name ltoes
    direction 0 0 0
    length 0
    axis 0 0 0 xyz
    dof rz ry rx
    limits( -inf , inf )
( -inf , inf )
( -inf , inf )

  end
  begin
    id 6
    name rfemurDummy
    direction -0.625247 -0.75382 0.202044
    length 5.74091
    axis 0 -0 0 xyz
  end
  begin
    id 7
    name rfemur
    direction -0.34202 -0.939693 -1.47013e-008
    length 16.4922
    axis 0 -0 -20 xyz
    dof rx ry rz
    limits( -inf , inf )
( -inf , inf )
( -inf , inf )

  end
  begin
    id 8
    name rtibia
    direction -0.34202 -0.939693 -7.74345e-010
    length 18.2421
    axis 0 -0 -20 xyz
    dof rz ry rx
    limits( -inf , inf )
( -inf , inf )
( -inf , inf )

  end
  begin
    id 9
    name rfoot
    direction -0.124331 -0.341598 0.931586
    length 5.45787
    axis -90 -7.62852e-016 -20 xyz
    dof ry rx rz
    limits( -inf , inf )
( -inf , inf )
( -inf , inf )

  end
  begin
    id 10
    name rtoes
    direction 0 0 0
    length 0
    axis 0 0 0 xyz
    dof rz ry rx
    limits( -inf , inf )
( -inf , inf )
( -inf , inf )

  end
  begin
    id 11
    name lowerbackDummy
    direction 0 0 0
    length 0
    axis 0 -0 0 xyz
  end
  begin
    id 12
    name lowerback
    direction -0.0218484 0.994884 -0.0986304
    length 4.45607
    axis 0 -0 0 xyz
    dof rx ry rz
    limits( -inf , inf )
( -inf , inf )
( -inf , inf )

  end
  begin
    id 13
    name upperback
    direction -0.00973057 0.999717 -0.0217111
    length 4.47449
    axis 0 -0 0 xyz
    dof rx ry rz
    limits( -inf , inf )
( -inf , inf )
( -inf , inf )

  end
  begin
    id 14
    name thorax
    direction -0.000928171 0.999699 0.0245198
    length 4.50973
    axis 0 -0 0 xyz
    dof rx ry rz
    limits( -inf , inf )
( -inf , inf )
( -inf , inf )

  end
  begin
    id 15
    name rclavicle
    direction -0.9009 0.425937 -0.0834055
    length 7.28587
    axis 0 -0 0 xyz
    dof rx ry rz
    limits( -inf , inf )
( -inf , inf )
( -inf , inf )

  end
  begin
    id 16
    name rhumerus
    direction -1 -2.23604e-007 -1.42637e-007
    length 13.5704
    axis 180 30 90 xyz
    dof rx ry rz
    limits( -inf , inf )
( -inf , inf )
( -inf , inf )

  end
  begin
    id 17
    name rradius
    direction -1 5.68281e-008 -4.4952e-007
    length 8.06782
    axis 180 30 90 xyz
    dof rz ry rx
    limits( -inf , inf )
( -inf , inf )
( -inf , inf )

  end
  begin
    id 18
    name rwrist
    direction -1 1.51393e-007 1.38143e-007
    length 4.03391
    axis -90 -90 0 xyz
    dof rz rx ry
    limits( -inf , inf )
( -inf , inf )
( -inf , inf )

  end
  begin
    id 19
    name rthumb
    direction 0 0 0
    length 0
    axis 0 0 0 xyz
    dof ry rx rz
    limits( -inf , inf )
( -inf , inf )
( -inf , inf )

  end
  begin
    id 20
    name rhand
    direction -1 -3.34077e-007 -5.59631e-007
    length 1.29744
    axis -90 -90 0 xyz
    dof ry rx rz
    limits( -inf , inf )
( -inf , inf )
( -inf , inf )

  end
  begin
    id 21
    name rfingers
    direction 0 0 0
    length 0
    axis 0 0 0 xyz
    dof rz ry rx
    limits( -inf , inf )
( -inf , inf )
( -inf , inf )

  end
  begin
    id 22
    name lclavicle
    direction 0.940017 0.332249 -0.0773232
    length 8.29589
    axis 0 -0 0 xyz
    dof rx ry rz
    limits( -inf , inf )
( -inf , inf )
( -inf , inf )

  end
  begin
    id 23
    name lhumerus
    direction 1 7.41158e-008 -1.44768e-008
    length 12.0042
    axis 180 -30 -90 xyz
    dof rx ry rz
    limits( -inf , inf )
( -inf , inf )
( -inf , inf )

  end
  begin
    id 24
    name lradius
    direction 1 -1.32972e-007 3.10821e-007
    length 8.1902
    axis 180 -30 -90 xyz
    dof rz ry rx
    limits( -inf , inf )
( -inf , inf )
( -inf , inf )

  end
  begin
    id 25
    name lwrist
    direction 1 3.08957e-007 4.01394e-007
    length 4.09509
    axis -90 90 0 xyz
    dof rz rx ry
    limits( -inf , inf )
( -inf , inf )
( -inf , inf )

  end
  begin
    id 26
    name lthumb
    direction 0 0 0
    length 0
    axis 0 0 0 xyz
    dof ry rx rz
    limits( -inf , inf )
( -inf , inf )
( -inf , inf )

  end
  begin
    id 27
    name lhand
    direction 1 -1.64125e-007 -6.99514e-007
    length 1.37229
    axis -90 90 0 xyz
    dof ry rx rz
    limits( -inf , inf )
( -inf , inf )
( -inf , inf )

  end
  begin
    id 28
    name lfingers
    direction 0 0 0
    length 0
    axis 0 0 0 xyz
    dof rz ry rx
    limits( -inf , inf )
( -inf , inf )
( -inf , inf )

  end
  begin
    id 29
    name lowerneck
    direction -0.030798 0.998024 0.0547665
    length 3.93918
    axis 0 -0 0 xyz
    dof rx ry rz
    limits( -inf , inf )
( -inf , inf )
( -inf , inf )

  end
  begin
    id 30
    name upperneck
    direction 0.0531588 0.996611 -0.0627736
    length 3.95491
    axis 0 -0 0 xyz
    dof rx ry rz
    limits( -inf , inf )
( -inf , inf )
( -inf , inf )

  end
  begin
    id 31
    name head
    direction 0 0 0
    length 0
    axis 0 0 0 xyz
    dof rx ry rz
    limits( -inf , inf )
( -inf , inf )
( -inf , inf )

  end
:hierarchy
  begin
    root lfemurDummy rfemurDummy lowerbackDummy
    lfemurDummy lfemur
    lfemur ltibia
    ltibia lfoot
    lfoot ltoes
    rfemurDummy rfemur
    rfemur rtibia
    rtibia rfoot
    rfoot rtoes
    lowerbackDummy lowerback
    lowerback upperback
    upperback thorax
    thorax rclavicle lclavicle lowerneck
    rclavicle rhumerus
    rhumerus rradius
    rradius rwrist
    rwrist rthumb rhand
    rhand rfingers
    lclavicle lhumerus
    lhumerus lradius
    lradius lwrist
    lwrist lthumb lhand
    lhand lfingers
    lowerneck upperneck
    upperneck head
  end

:SAMPLES-PER-SECOND 30
:FULLY-SPECIFIED
:DEGREES
28
root  3.625133469 33.78022261 -1.917873405 13.57899475 -80.8891983 -32.46200562
lowerback  6.235089779 6.257880211 0.4831430018
upperback  1.694479942 8.278320313 -1.874109983
thorax  -1.371180058 4.117519855 -2.773859978
lowerneck  -11.05840015 7.323750019 -5.878190041
upperneck  16.1086998 9.440279961 9.355819702
head  5.917759895 4.977540016 4.662099838
lclavicle  0 -9.442270133e-015 7.951389973e-016
lhumerus  -3.402839899 -18.91889954 78.03559875
lradius  2.565075699e-031 -2.426773721e-031 136.5870056
lwrist  -1.412450015e-030 -0 8.635290146
lhand  -1.496451383e-031 -27.76390076 20.11240005
lfingers  90 7.125020027 -90
lthumb  89.89689403 5.08795885 91.16245106
rclavicle  0 -9.442270133e-015 7.951389973e-016
rhumerus  -11.52540016 27.71349907 -94.38400269
rradius  -7.59400821e-032 3.448500316e-031 102.4189987
rwrist  1.059337512e-030 -3.531125038e-031 -2.305389881
rhand  -7.920061211e-032 -33.2840004 9.303460121
rfingers  -90 -7.125020027 -90
rthumb  -92.93752616 -24.25625642 -97.11982154
rfemur  7.119550228 12.82209969 9.893919945
rtibia  -0 0 64.99500275
rfoot  -5.179257004e-032 -31.54520035 -5.214169979
rtoes  5.373923086 19.29304026 -105.8922705
lfemur  -16.17510033 -8.020629883 14.82289982
ltibia  -0 0 73.9496994
lfoot  -0 -6.988550186 -11.13389969
ltoes  -4.250644065 -19.5611806 -102.515957
29
root  3.304222062 33.87400109 -1.89258658 11.90100098 -80.77999878 -31.79699707
lowerback  5.759630203 6.244609833 -0.0544705987
upperback  1.370499969 8.226059914 -2.083849907
thorax  -1.489609957 4.089300156 -2.661050081
lowerneck  -11.14039993 7.399409771 -5.824279785
upperneck  17.00790024 9.381669998 10.05259991
head  6.182020187 5.004020214 4.916520119
lclavicle  0 -9.442270133e-015 7.951389973e-016
lhumerus  -3.181879997 -19.49309921 77.93340302
lradius  2.566980814e-031 -2.424758449e-031 136.6320038
lwrist  -1.412450015e-030 -0 8.934849739
lhand  -1.496451383e-031 -27.76390076 20.11240005
lfingers  90 7.125020027 -90
lthumb  89.89689403 5.08795885 91.16245106
rclavicle  0 -9.442270133e-015 7.951389973e-016
rhumerus  -12.74359989 27.30890083 -95.22039795
rradius  -8.160524417e-032 3.435535249e-031 103.3619995
rwrist  7.062250077e-031 -3.531125038e-031 -1.606379986
rhand  -7.920061211e-032 -33.2840004 9.303460121
rfingers  -90 -7.125020027 -90
rthumb  -92.93752616 -24.25625642 -97.11982154
rfemur  8.887720108 12.22399998 10.00389957
rtibia  -0 0 64.65019989
rfoot  -5.128109338e-032 -30.60160065 -5.670289993
rtoes  5.373923086 19.29304026 -105.8922705
lfemur  -15.29370022 -9.141039848 14.56630039
ltibia  -0 0 74.1053009
lfoot  -0 -5.057549953 -11.51980019
ltoes  -4.250644065 -19.5611806 -102.515957
30
root  3.00862226 33.98066543 -1.872642209 10.70599365 -80.5714035 -31.51199341
lowerback  5.376049995 6.213709831 -0.501330018
upperback  0.9568459988 8.154569626 -2.292000055
thorax  -1.738489985 4.050759792 -2.612479925
lowerneck  -10.97560024 7.428790092 -5.821280003
upperneck  17.71249962 9.27120018 10.67430019
head  6.349319935 4.995170116 5.132559776
lclavicle  0 -9.442270133e-015 7.951389973e-016
lhumerus  -2.964950085 -19.95429993 77.82350159
lradius  2.567446354e-031 -2.424265509e-031 136.6430054
lwrist  -1.412450015e-030 -0 9.051959991
lhand  -1.496451383e-031 -27.76390076 20.11240005
lfingers  90 7.125020027 -90
lthumb  89.89689403 5.08795885 91.16245106
rclavicle  0 -9.442270133e-015 7.951389973e-016
rhumerus  -13.84829998 26.79369926 -95.96350098
rradius  -8.818554522e-032 3.419236026e-031 104.461998
rwrist  3.531125038e-031 -0 -1.513669968
rhand  -7.920061211e-032 -33.2840004 9.303460121
rfingers  -90 -7.125020027 -90
rthumb  -92.93752616 -24.25625642 -97.11982154
rfemur  10.33819962 11.67679977 10.22780037
rtibia  -0 0 64.49680328
rfoot  -5.066103028e-032 -29.39430046 -5.766910076
rtoes  5.373923086 19.29304026 -105.8922705
lfemur  -14.66730022 -10.09440041 14.46790028
ltibia  -0 0 74.17389679
lfoot  -0 -2.548340082 -11.9368
ltoes  -4.250644065 -19.5611806 -102.515957
31
root  2.726511129 34.09511236 -1.85105106 10.35699463 -80.32289886 -31.90299988
lowerback  4.78455019 6.199560165 -0.6470019817
upperback  0.6074920297 8.126110077 -2.586380005
thorax  -1.748970032 4.035339832 -2.784840107
lowerneck  -10.9321003 7.424769878 -5.487500191
upperneck  18.34480095 9.143939972 10.80529976
head  6.563720226 4.960370064 5.144780159
lclavicle  0 -9.442270133e-015 7.951389973e-016
lhumerus  -2.534569979 -20.54719925 77.51789856
lradius  2.566472551e-031 -2.425296411e-031 136.6199951
lwrist  -1.412450015e-030 -0 8.798319817
lhand  -1.496451383e-031 -27.76390076 20.11240005
lfingers  90 7.125020027 -90
lthumb  89.89689403 5.08795885 91.16245106
rclavicle  0 -9.442270133e-015 7.951389973e-016
rhumerus  -14.59490013 26.09300041 -96.42829895
rradius  -9.638869058e-032 3.397023119e-031 105.8410034
rwrist  3.531125038e-031 -0 -2.37590003
rhand  -7.920061211e-032 -33.2840004 9.303460121
rfingers  -90 -7.125020027 -90
rthumb  -92.93752616 -24.25625642 -97.11982154
rfemur  11.37689972 11.23429966 10.57929993
rtibia  -0 0 64.57489777
rfoot  -4.997584061e-032 -27.96820068 -5.797140121
rtoes  5.373923086 19.29304026 -105.8922705
lfemur  -14.2894001 -10.7840004 14.54979992
ltibia  -0 0 74.18090057
lfoot  -0 0.2549990118 -12.54520035
ltoes  -4.250644065 -19.5611806 -102.515957
32
root  2.46053324 34.21711058 -1.822671177 10.47999573 -80.13069916 -32.63499451
lowerback  4.075809956 6.263730049 -0.6936330199
upperback  0.1418830007 8.20884037 -2.853549957
thorax  -1.799059987 4.07407999 -2.982969999
lowerneck  -10.17860031 7.427690029 -5.105370045
upperneck  18.56229973 9.066490173 10.62950039
head  6.53703022 4.914519787 4.993710041
lclavicle  0 -9.442270133e-015 7.951389973e-016
lhumerus  -2.45201993 -21.32909966 77.42320251
lradius  2.566684395e-031 -2.425072217e-031 136.625
lwrist  -7.062250077e-031 -0 8.439849854
lhand  -1.496451383e-031 -27.76390076 20.11240005
lfingers  90 7.125020027 -90
lthumb  89.89689403 5.08795885 91.16245106
rclavicle  0 -9.442270133e-015 7.951389973e-016
rhumerus  -15.52610016 25.41600037 -96.69580078
rradius  -1.050303278e-031 3.371306432e-031 107.3040009
rwrist  1.412450015e-030 -3.531125038e-031 -2.861040115
rhand  -7.920061211e-032 -33.2840004 9.303460121
rfingers  -90 -7.125020027 -90
rthumb  -92.93752616 -24.25625642 -97.11982154
rfemur  12.07460022 11.00580025 11.01010036
rtibia  -0 0 64.86740112
rfoot  -4.921737584e-032 -26.25699997 -5.84844017
rtoes  5.373923086 19.29304026 -105.8922705
lfemur  -14.03779984 -11.27540016 14.63150024
ltibia  -0 0 74.20010376
lfoot  -0 2.449300051 -13.24530029
ltoes  -4.250644065 -19.5611806 -102.515957
33
root  2.213453308 34.33488861 -1.779364413 11.18299866 -79.93599701 -33.8730011
lowerback  3.37925005 6.142459869 -0.5620430112
upperback  0.1288949996 8.064049721 -3.065840006
thorax  -1.382660031 4.00383997 -3.177750111
lowerneck  -11.14630032 7.444109917 -5.91313982
upperneck  18.9545002 9.138239861 11.34560013
head  6.741869926 4.978600025 5.42866993
lclavicle  0 -9.442270133e-015 7.951389973e-016
lhumerus  -1.471449971 -21.1140995 76.96820068
lradius  2.562066548e-031 -2.429950419e-031 136.5160065
lwrist  -1.412450015e-030 -0 8.536459923
lhand  -1.496451383e-031 -27.76390076 20.11240005
lfingers  90 7.125020027 -90
lthumb  89.89689403 5.08795885 91.16245106
rclavicle  0 -9.442270133e-015 7.951389973e-016
rhumerus  -15.1935997 25.6147995 -96.44869995
rradius  -1.125525717e-031 3.346944263e-031 108.586998
rwrist  1.412450015e-030 -3.531125038e-031 -2.80170989
rhand  -7.920061211e-032 -33.2840004 9.303460121
rfingers  -90 -7.125020027 -90
rthumb  -92.93752616 -24.25625642 -97.11982154
rfemur  12.48789978 10.87520027 11.53759956
rtibia  -0 0 65.332901
rfoot  -4.838705476e-032 -24.18770027 -6.087759972
rtoes  5.373923086 19.29304026 -105.8922705
lfemur  -13.82649994 -11.65709972 14.76920033
ltibia  -0 0 74.25839996
lfoot  -0 3.898260117 -13.86130047
ltoes  -4.250644065 -19.5611806 -102.515957
34
root  1.985128846 34.44111141 -1.726391184 12.36000061 -79.71600342 -35.53500366
lowerback  2.686719894 6.164589882 -0.3232769966
upperback  -0.08169730008 8.106789589 -3.320539951
thorax  -1.142070055 4.024179935 -3.497090101
lowerneck  -11.21539974 7.370019913 -6.045350075
upperneck  19.09679985 9.015760422 11.58520031
head  6.790339947 4.933310032 5.531489849
lclavicle  0 -9.442270133e-015 7.951389973e-016
lhumerus  -0.8623160124 -21.15749931 76.61190033
lradius  2.56066637e-031 -2.431425873e-031 136.4830017
lwrist  -1.412450015e-030 -1.765562519e-031 9.055049896
lhand  -1.496451383e-031 -27.76390076 20.11240005
lfingers  90 7.125020027 -90
lthumb  89.89689403 5.08795885 91.16245106
rclavicle  0 -9.442270133e-015 7.951389973e-016
rhumerus  -15.20880032 25.4435997 -96.19509888
rradius  -1.207426481e-031 3.318277464e-031 109.9950027
rwrist  3.531125038e-031 -0 -2.802839994
rhand  -7.920061211e-032 -33.2840004 9.303460121
rfingers  -90 -7.125020027 -90
rthumb  -92.93752616 -24.25625642 -97.11982154
rfemur  12.64920044 10.7737999 12.11559963
rtibia  -0 0 65.92610168
rfoot  -4.758630901e-032 -21.94269943 -6.388830185
rtoes  5.373923086 19.29304026 -105.8922705
lfemur  -13.68150043 -11.79899979 15.02149963
ltibia  -0 0 74.35469818
lfoot  -0 4.608089924 -14.53339958
ltoes  -4.250644065 -19.5611806 -102.515957
